<svg id="SvgjsSvg1144" width="880" height="1067" xmlns="http://www.w3.org/2000/svg" version="1.1" xmlns:xlink="http://www.w3.org/1999/xlink" xmlns:svgjs="http://svgjs.com/svgjs"><defs id="SvgjsDefs1145"></defs><g id="SvgjsG1146" transform="translate(25,25)"><path id="SvgjsPath1147" d="M 0 0L 830 0L 830 1017L 0 1017Z" stroke="#ffffff" stroke-width="2" fill-opacity="1" fill="#99ffcc"></path><g id="SvgjsG1148"><text id="SvgjsText1149" font-family="微软雅黑" text-anchor="middle" font-size="13px" width="0" fill="#323232" font-weight="400" align="middle" anchor="middle" family="微软雅黑" size="13px" weight="400" font-style="" y="498.55" transform="rotate(0)"></text></g></g><g id="SvgjsG1150" transform="translate(170.5,56)"><path id="SvgjsPath1151" d="M 0 0L 160 0L 160 40L 0 40Z" stroke="none" fill="none"></path><g id="SvgjsG1152"><text id="SvgjsText1153" font-family="微软雅黑" text-anchor="middle" font-size="15px" width="74" fill="#323232" font-weight="400" align="middle" anchor="middle" family="微软雅黑" size="15px" weight="400" font-style="" y="8.25" transform="rotate(0)"><tspan id="SvgjsTspan1154" dy="18" x="80"><tspan id="SvgjsTspan1155" style="text-decoration:;">chain0: ibc0</tspan></tspan></text></g></g><g id="SvgjsG1156" transform="translate(549.5,56)"><path id="SvgjsPath1157" d="M 0 0L 160 0L 160 40L 0 40Z" stroke="none" fill="none"></path><g id="SvgjsG1158"><text id="SvgjsText1159" font-family="微软雅黑" text-anchor="middle" font-size="15px" width="74" fill="#323232" font-weight="400" align="middle" anchor="middle" family="微软雅黑" size="15px" weight="400" font-style="" y="8.25" transform="rotate(0)"><tspan id="SvgjsTspan1160" dy="18" x="80"><tspan id="SvgjsTspan1161" style="text-decoration:;">chain1: ibc1</tspan></tspan></text></g></g><g id="SvgjsG1162" transform="translate(240,96)"><path id="SvgjsPath1163" d="M 10.5 0L 10.5 911" stroke="#888888" stroke-width="1" fill="none"></path><path id="SvgjsPath1164" d="M 0 0L 21 0L 21 911L 0 911Z" stroke="none" fill="none"></path></g><g id="SvgjsG1165" transform="translate(619,96)"><path id="SvgjsPath1166" d="M 10.5 0L 10.5 911" stroke="#888888" stroke-width="1" fill="none"></path><path id="SvgjsPath1167" d="M 0 0L 21 0L 21 911L 0 911Z" stroke="none" fill="none"></path></g><g id="SvgjsG1168" transform="translate(235,119)"><path id="SvgjsPath1169" d="M 0 0L 31 0L 31 87L 0 87Z" stroke="none" fill-opacity="1" fill="#99ccff"></path><g id="SvgjsG1170"><text id="SvgjsText1171" font-family="微软雅黑" text-anchor="middle" font-size="13px" width="0" fill="#323232" font-weight="400" align="middle" anchor="middle" family="微软雅黑" size="13px" weight="400" font-style="" y="33.55" transform="rotate(0)"></text></g></g><g id="SvgjsG1172" transform="translate(50,126)"><path id="SvgjsPath1173" d="M 0 0L 198.5 0L 198.5 97L 0 97Z" stroke="none" fill="none"></path><g id="SvgjsG1174"><text id="SvgjsText1175" font-family="微软雅黑" text-anchor="start" font-size="13px" width="172" fill="#323232" font-weight="400" align="middle" anchor="start" family="微软雅黑" size="13px" weight="400" font-style="" y="14.55" transform="rotate(0)"><tspan id="SvgjsTspan1176" dy="16" x="0"><tspan id="SvgjsTspan1177" style="text-decoration:;">connection_open_init</tspan></tspan><tspan id="SvgjsTspan1178" dy="16" x="0"><tspan id="SvgjsTspan1179" style="text-decoration:;">client(ibconeclient)</tspan></tspan><tspan id="SvgjsTspan1180" dy="16" x="0"><tspan id="SvgjsTspan1181" style="text-decoration:;">connection(connectionzero)</tspan></tspan><tspan id="SvgjsTspan1182" dy="16" x="0"><tspan id="SvgjsTspan1183" style="text-decoration:;">                                                     </tspan></tspan></text></g></g><g id="SvgjsG1184" transform="translate(253.5,212)"><path id="SvgjsPath1185" d="M 0 6.6000000000000005L 363 6.6000000000000005L 363 0L 373 10L 363 20L 363 13.4L 0 13.4L 0 6.6000000000000005Z" stroke="none" fill-opacity="1" fill="#ff6666"></path><g id="SvgjsG1186"><text id="SvgjsText1187" font-family="微软雅黑" text-anchor="middle" font-size="13px" width="0" fill="#323232" font-weight="400" align="middle" anchor="middle" family="微软雅黑" size="13px" weight="400" font-style="" y="0.05000000000000093" transform="rotate(0)"></text></g></g><g id="SvgjsG1188" transform="translate(614,237)"><path id="SvgjsPath1189" d="M 0 0L 31 0L 31 87L 0 87Z" stroke="none" fill-opacity="1" fill="#99ccff"></path><g id="SvgjsG1190"><text id="SvgjsText1191" font-family="微软雅黑" text-anchor="middle" font-size="13px" width="0" fill="#323232" font-weight="400" align="middle" anchor="middle" family="微软雅黑" size="13px" weight="400" font-style="" y="33.55" transform="rotate(0)"></text></g></g><g id="SvgjsG1192" transform="translate(657.5,232)"><path id="SvgjsPath1193" d="M 0 0L 151 0L 151 87L 0 87Z" stroke="none" fill="none"></path><g id="SvgjsG1194"><text id="SvgjsText1195" font-family="微软雅黑" text-anchor="start" font-size="13px" width="101" fill="#323232" font-weight="400" align="middle" anchor="start" family="微软雅黑" size="13px" weight="400" font-style="" y="25.55" transform="rotate(0)"><tspan id="SvgjsTspan1196" dy="16" x="0"><tspan id="SvgjsTspan1197" style="text-decoration:;">update_client</tspan></tspan><tspan id="SvgjsTspan1198" dy="16" x="0"><tspan id="SvgjsTspan1199" style="text-decoration:;">client(ibconeclient)</tspan></tspan></text></g></g><g id="SvgjsG1200" transform="translate(614,349)"><path id="SvgjsPath1201" d="M 0 0L 31 0L 31 87L 0 87Z" stroke="none" fill-opacity="1" fill="#99ccff"></path><g id="SvgjsG1202"><text id="SvgjsText1203" font-family="微软雅黑" text-anchor="middle" font-size="13px" width="0" fill="#323232" font-weight="400" align="middle" anchor="middle" family="微软雅黑" size="13px" weight="400" font-style="" y="33.55" transform="rotate(0)"></text></g></g><g id="SvgjsG1204" transform="translate(657.5,345)"><path id="SvgjsPath1205" d="M 0 0L 193 0L 193 95L 0 95Z" stroke="none" fill="none"></path><g id="SvgjsG1206"><text id="SvgjsText1207" font-family="微软雅黑" text-anchor="start" font-size="13px" width="185" fill="#323232" font-weight="400" align="middle" anchor="start" family="微软雅黑" size="13px" weight="400" font-style="" y="13.55" transform="rotate(0)"><tspan id="SvgjsTspan1208" dy="16" x="0"><tspan id="SvgjsTspan1209" style="text-decoration:;">connection_open_try</tspan></tspan><tspan id="SvgjsTspan1210" dy="16" x="0"><tspan id="SvgjsTspan1211" style="text-decoration:;">client(ibczeroclient)</tspan></tspan><tspan id="SvgjsTspan1212" dy="16" x="0"><tspan id="SvgjsTspan1213" style="text-decoration:;">connection(connectionone)</tspan></tspan><tspan id="SvgjsTspan1214" dy="16" x="0"><tspan id="SvgjsTspan1215" style="text-decoration:;">                                                         </tspan></tspan></text></g></g><g id="SvgjsG1216" transform="matrix(-1,1.2246467991473532e-16,-1.2246467991473532e-16,-1,626.5,468)"><path id="SvgjsPath1217" d="M 0 6.6000000000000005L 363 6.6000000000000005L 363 0L 373 10L 363 20L 363 13.4L 0 13.4L 0 6.6000000000000005Z" stroke="none" fill-opacity="1" fill="#ff6666"></path><g id="SvgjsG1218"><text id="SvgjsText1219" font-family="微软雅黑" text-anchor="middle" font-size="13px" width="0" fill="#323232" font-weight="400" align="middle" anchor="middle" family="微软雅黑" size="13px" weight="400" font-style="" y="0.05000000000000093" transform="rotate(0)"></text></g></g><g id="SvgjsG1220" transform="translate(235,483)"><path id="SvgjsPath1221" d="M 0 0L 31 0L 31 87L 0 87Z" stroke="none" fill-opacity="1" fill="#99ccff"></path><g id="SvgjsG1222"><text id="SvgjsText1223" font-family="微软雅黑" text-anchor="middle" font-size="13px" width="0" fill="#323232" font-weight="400" align="middle" anchor="middle" family="微软雅黑" size="13px" weight="400" font-style="" y="33.55" transform="rotate(0)"></text></g></g><g id="SvgjsG1224" transform="translate(50,487)"><path id="SvgjsPath1225" d="M 0 0L 151 0L 151 87L 0 87Z" stroke="none" fill="none"></path><g id="SvgjsG1226"><text id="SvgjsText1227" font-family="微软雅黑" text-anchor="start" font-size="13px" width="105" fill="#323232" font-weight="400" align="middle" anchor="start" family="微软雅黑" size="13px" weight="400" font-style="" y="25.55" transform="rotate(0)"><tspan id="SvgjsTspan1228" dy="16" x="0"><tspan id="SvgjsTspan1229" style="text-decoration:;">update_client</tspan></tspan><tspan id="SvgjsTspan1230" dy="16" x="0"><tspan id="SvgjsTspan1231" style="text-decoration:;">client(ibczeroclient)</tspan></tspan></text></g></g><g id="SvgjsG1232" transform="translate(235,595)"><path id="SvgjsPath1233" d="M 0 0L 31 0L 31 87L 0 87Z" stroke="none" fill-opacity="1" fill="#99ccff"></path><g id="SvgjsG1234"><text id="SvgjsText1235" font-family="微软雅黑" text-anchor="middle" font-size="13px" width="0" fill="#323232" font-weight="400" align="middle" anchor="middle" family="微软雅黑" size="13px" weight="400" font-style="" y="33.55" transform="rotate(0)"></text></g></g><g id="SvgjsG1236" transform="translate(50,598)"><path id="SvgjsPath1237" d="M 0 0L 213 0L 213 96L 0 96Z" stroke="none" fill="none"></path><g id="SvgjsG1238"><text id="SvgjsText1239" font-family="微软雅黑" text-anchor="start" font-size="13px" width="192" fill="#323232" font-weight="400" align="middle" anchor="start" family="微软雅黑" size="13px" weight="400" font-style="" y="22.05" transform="rotate(0)"><tspan id="SvgjsTspan1240" dy="16" x="0"><tspan id="SvgjsTspan1241" style="text-decoration:;">connection_open_ack</tspan></tspan><tspan id="SvgjsTspan1242" dy="16" x="0"><tspan id="SvgjsTspan1243" style="text-decoration:;">connection(connectionzero)</tspan></tspan><tspan id="SvgjsTspan1244" dy="16" x="0"><tspan id="SvgjsTspan1245" style="text-decoration:;">                                                           </tspan></tspan></text></g></g><g id="SvgjsG1246" transform="translate(614,719)"><path id="SvgjsPath1247" d="M 0 0L 31 0L 31 87L 0 87Z" stroke="none" fill-opacity="1" fill="#99ccff"></path><g id="SvgjsG1248"><text id="SvgjsText1249" font-family="微软雅黑" text-anchor="middle" font-size="13px" width="0" fill="#323232" font-weight="400" align="middle" anchor="middle" family="微软雅黑" size="13px" weight="400" font-style="" y="33.55" transform="rotate(0)"></text></g></g><g id="SvgjsG1250" transform="translate(657.5,714)"><path id="SvgjsPath1251" d="M 0 0L 151 0L 151 87L 0 87Z" stroke="none" fill="none"></path><g id="SvgjsG1252"><text id="SvgjsText1253" font-family="微软雅黑" text-anchor="start" font-size="13px" width="101" fill="#323232" font-weight="400" align="middle" anchor="start" family="微软雅黑" size="13px" weight="400" font-style="" y="25.55" transform="rotate(0)"><tspan id="SvgjsTspan1254" dy="16" x="0"><tspan id="SvgjsTspan1255" style="text-decoration:;">update_client</tspan></tspan><tspan id="SvgjsTspan1256" dy="16" x="0"><tspan id="SvgjsTspan1257" style="text-decoration:;">client(ibconeclient)</tspan></tspan></text></g></g><g id="SvgjsG1258" transform="translate(253.5,685)"><path id="SvgjsPath1259" d="M 0 6.6000000000000005L 363 6.6000000000000005L 363 0L 373 10L 363 20L 363 13.4L 0 13.4L 0 6.6000000000000005Z" stroke="none" fill-opacity="1" fill="#ff6666"></path><g id="SvgjsG1260"><text id="SvgjsText1261" font-family="微软雅黑" text-anchor="middle" font-size="13px" width="0" fill="#323232" font-weight="400" align="middle" anchor="middle" family="微软雅黑" size="13px" weight="400" font-style="" y="0.05000000000000093" transform="rotate(0)"></text></g></g><g id="SvgjsG1262" transform="translate(614,834)"><path id="SvgjsPath1263" d="M 0 0L 31 0L 31 87L 0 87Z" stroke="none" fill-opacity="1" fill="#99ccff"></path><g id="SvgjsG1264"><text id="SvgjsText1265" font-family="微软雅黑" text-anchor="middle" font-size="13px" width="0" fill="#323232" font-weight="400" align="middle" anchor="middle" family="微软雅黑" size="13px" weight="400" font-style="" y="33.55" transform="rotate(0)"></text></g></g><g id="SvgjsG1266" transform="translate(650.75,833.5)"><path id="SvgjsPath1267" d="M 0 0L 199.75 0L 199.75 88L 0 88Z" stroke="none" fill="none"></path><g id="SvgjsG1268"><text id="SvgjsText1269" font-family="微软雅黑" text-anchor="start" font-size="13px" width="198" fill="#323232" font-weight="400" align="middle" anchor="start" family="微软雅黑" size="13px" weight="400" font-style="" y="18.05" transform="rotate(0)"><tspan id="SvgjsTspan1270" dy="16" x="0"><tspan id="SvgjsTspan1271" style="text-decoration:;">connection_open_confirm</tspan></tspan><tspan id="SvgjsTspan1272" dy="16" x="0"><tspan id="SvgjsTspan1273" style="text-decoration:;">connection(connectionone)</tspan></tspan><tspan id="SvgjsTspan1274" dy="16" x="0"><tspan id="SvgjsTspan1275" style="text-decoration:;">                                                             </tspan></tspan></text></g></g><g id="SvgjsG1276" transform="translate(687.5,991)"><path id="SvgjsPath1277" d="M 0 0L 160 0L 160 40L 0 40Z" stroke="none" fill="none"></path><g id="SvgjsG1278"><text id="SvgjsText1279" font-family="微软雅黑" text-anchor="middle" font-size="13px" width="48" fill="#323232" font-weight="400" align="middle" anchor="middle" family="微软雅黑" size="13px" weight="400" font-style="" y="10.05" transform="rotate(0)"><tspan id="SvgjsTspan1280" dy="16" x="80"><tspan id="SvgjsTspan1281" style="text-decoration:;">@Yieazy</tspan></tspan></text></g></g></svg>